<?xml version="1.0" encoding="utf-8"?>
<!-- Generator: Adobe Illustrator 22.1.0, SVG Export Plug-In . SVG Version: 6.00 Build 0)  -->
<svg version="1.1" id="Calque_1" xmlns="http://www.w3.org/2000/svg" xmlns:xlink="http://www.w3.org/1999/xlink" x="0px" y="0px"
	 viewBox="0 0 795.4 62.6" style="enable-background:new 0 0 795.4 62.6;" xml:space="preserve">
<style type="text/css">
	.st0{stroke:#000000;stroke-width:4;stroke-linejoin:round;stroke-miterlimit:10;}
</style>
<g>
	<path d="M8.4,22.1c-1.8,0.1-2.7-0.6-2.7-2.1c0-0.2,0.2-1.3,0.5-3.2c0.3-2,0.9-3.6,1.8-5c1-1.6,2.2-2.4,3.7-2.6
		c1.5-0.2,3.4-0.3,5.8-0.4c3.6,0,5.6-0.1,6-0.1c1.2-0.1,1.8-0.1,1.9-0.1c0.4-0.1,0.9-0.6,1.4-1.5c0.3-0.7,0.6-1.4,1-2
		c0.3-0.6,0.9-1,1.7-1.2c2.1-0.6,3.9-0.8,5.4-0.5c1.5,0.3,2.4,1,2.9,2C38,5.9,38.1,7,38.1,8.6c4,0.2,9.2-0.3,15.7-1.6
		c0.3-0.1,1.5-0.4,3.5-1c1.5-0.5,2.8-0.7,3.8-0.7c0.4,0,0.9,0,1.3,0.1c1.3,0.3,2,0.9,2,1.7c0,0.5-0.5,1.7-1.4,3.7
		c-1.6,3.3-4.8,5.4-9.8,6.5c-4.1,0.5-8.2,1.1-12.4,1.6c-3.7,0.7-6,1.1-7,1.1c-1.5,0-2.6,0.4-3.3,1.3c-0.5,0.6-1,1.7-1.6,3.5
		c-1.6,5-4.1,10.9-7.4,17.6c-3,5.6-5.9,11.3-8.8,16.9c-1.1,2.2-3.2,3.2-6.1,3.2c-1.8,0-3.3-0.4-4.6-1.3c-1.3-0.9-2-2-2-3.5
		C0,57,0.3,56,0.8,55.1c1.4-2.4,2.9-4.9,4.3-7.3c1.9-3.2,3.3-5.9,4.3-8.3c0.4-1.1,2.2-4.1,5.3-9c2.5-4,4-7.3,4.4-9.9
		c-0.6-0.1-1.3-0.2-1.9-0.2c-1.1,0-2.6,0.3-4.5,0.9C10.9,21.8,9.4,22.1,8.4,22.1z"/>
	<path d="M90.9,0.5c0.6,0,1.1,0.1,1.7,0.2c0.8,0.2,1.3,0.3,1.6,0.3C96,1.3,99,2,103.3,3.2c3.6,1,6.9,3.1,9.9,6.1
		c3,3.1,4.9,6.4,5.8,10c0.4,2,0.7,4.1,0.7,6.1c0,9.7-4.3,17.2-13,22.5c-7.3,4.4-16.1,6.7-26.3,6.7c-2.8,0-5.2-0.4-7.3-1.2
		s-4-2.1-5.6-3.8c-1.7-1.8-2.7-3.8-3-5.9c-0.4-2.4-0.5-4.8-0.5-7.1c0-7,1.6-13.3,4.9-18.8c2.9-4.9,5.8-8.7,8.9-11.4
		c3.6-3.2,7.8-5.3,12.7-6.4L90.9,0.5z M108.7,27c0.1-0.7,0.2-1.3,0.2-2c0-3.2-1.3-5.9-3.9-8.2c-2.6-2.3-5.5-3.5-8.8-3.5
		c-4,0-7.8,1.7-11.4,5c-3.1,2.8-5.6,6.2-7.4,10.3c-0.8,1.6-1.5,3.1-2.3,4.7c-0.9,2-1.3,3.7-1.3,5.1c0,1.7,0.7,3.1,2,4.2
		c1,0.8,2.1,1.3,3.2,1.3c1.6,0,3.4-0.9,5.5-2.7c1.7-1.7,3.4-3.4,5-5.1c1.9-1.9,3.5-3,4.6-3.2c0.2,0.8,0.2,1.6,0.2,2.3
		c0,1.4-0.4,3.2-1.3,5.3c0.4,0.1,0.7,0.1,1.1,0.1c2.9,0,5.9-1.6,9.1-4.7C106.3,33,108.1,30,108.7,27z"/>
	<path d="M182.5,21.6c0.6-0.6,1.3-1.1,1.9-1.6c0.7-0.7,1-1.3,1-1.9c0-0.6-0.4-1.3-1.3-1.9c-1.4-1-3.6-1.5-6.5-1.6
		c-1.9-0.1-3.8-0.2-5.6-0.2c-2.2-0.1-4.1,0-5.7,0.2c-3.6,0.5-7.7,1.5-12.4,2.9c-4.2,1.4-8.3,2.7-12.4,4.1c0,0-1.9,0.8-5.5,2.3
		c-2.3,1-4.3,1.5-5.9,1.4c-2.4-0.1-3.5-0.8-3.5-2.1c0-1.1,0.7-2.4,2.1-4c1.2-1.4,2.4-2.4,3.6-3.1C144.4,9,156.6,5.4,168.8,5.4
		c6.5,0,12.9,1.1,19.1,3.2c3.8,1.4,5.8,4.1,5.8,8.3c0,1.1-0.1,2.3-0.4,3.6c-0.9,4.4-4.5,8.4-10.8,11.9c0.6,1.2,2,3.1,4.1,5.6
		c2,2.4,3.3,4.3,4,5.8c0.8,1.6,1.6,3.3,2.4,4.9c1,2.2,1.4,4,1.4,5.3c0,2.5-1.6,3.8-4.9,3.9c-4.9,0.2-7.8-1.8-8.7-5.9
		c-0.8-3.7-2.5-6.8-4.9-9.2c-1.6-1.6-2.4-2.4-2.5-2.5c-1.1-1-2.3-1.6-3.4-1.8c-0.9-0.2-1.8-0.3-2.7-0.3c-4.2,0-8.7,2.8-13.5,8.4
		c-0.5,0.6-1.1,1.8-1.7,3.7c-0.7,2.1-1.3,3.5-1.7,4.2c-0.8,1.4-1.8,2-2.9,2c-0.4,0-0.8-0.1-1.3-0.2c-1.8-0.6-2.8-1-3.1-1.3
		c-0.8-0.6-1.2-1.6-1.2-3.1c0-1.6,1.1-3.7,3.1-6.4c2.1-2.7,3.2-4.9,3.3-6.5c0-0.4,0-1.9,0-4.6c0-1.9,0.2-3.4,0.5-4.5s0.7-1.8,1-2.1
		c0.3-0.3,1.1-0.5,2.3-0.7c1.2-0.2,2.2-0.7,2.9-1.5c0,0,0.7-1,1.9-2.8c1.7-2.5,3.3-3.8,4.9-3.8c0.6,0,1.1,0.2,1.6,0.5
		c0.8,0.6,1.1,1.3,1.1,2.1c0,0.7-0.6,2.1-1.7,4.4c1.2,0.4,2.6,0.7,4.3,0.7c2.7,0,5.5-0.5,8.3-1.4S180.8,23,182.5,21.6z"/>
	<path d="M211.5,26.2c1.9,0.4,3.1,0.8,3.5,1c1.1,0.6,1.7,1.5,1.9,2.8c0,0.4,0.1,0.7,0.1,1.1c0,1.2-0.3,2.5-0.8,4.1
		c-0.4,1.3-0.9,2.6-1.4,3.9c-0.8,2.6-2.9,7.1-6.5,13.5c-1.3,2.4-2.9,3.5-4.6,3.5c-1.6,0-3.1-1-4.4-2.9c-1.3-1.9-2-3.9-2-6.1
		c0-0.8,0.1-1.5,0.2-2.1c0.7-2.7,2.2-5.8,4.7-9.3c2-2.8,4.1-5.7,6.1-8.5c0.7-1,1.1-1.5,1.4-1.5C209.7,25.8,210.3,25.9,211.5,26.2z
		 M234.2,10c0.2,0.8,0.3,1.7,0.3,2.5c0,2.7-1.1,5-3.4,6.8c-2.1,1.7-4.7,2.7-7.7,3.1c-0.3,0-1.4,0.2-3.4,0.6
		c-1.6,0.3-2.8,0.5-3.7,0.5c-2.7,0-3.9-1.3-3.7-3.8c0.2-2.6,2-4.8,5.3-6.4c2.9-1.1,5.8-2.2,8.7-3.4c0.8-0.5,1.7-0.9,2.6-1.4
		c1.1-0.6,2-0.9,2.7-0.9C233,7.7,233.8,8.5,234.2,10z"/>
	<path d="M242.8,26.2c1.9,0.4,3.1,0.8,3.5,1c1.1,0.6,1.7,1.5,1.9,2.8c0,0.4,0.1,0.7,0.1,1.1c0,1.2-0.3,2.5-0.8,4.1
		c-0.4,1.3-0.9,2.6-1.4,3.9c-0.8,2.6-2.9,7.1-6.5,13.5c-1.3,2.4-2.9,3.5-4.6,3.5c-1.6,0-3.1-1-4.4-2.9c-1.3-1.9-2-3.9-2-6.1
		c0-0.8,0.1-1.5,0.2-2.1c0.7-2.7,2.2-5.8,4.7-9.3c2-2.8,4.1-5.7,6.1-8.5c0.7-1,1.1-1.5,1.4-1.5C241,25.8,241.6,25.9,242.8,26.2z
		 M265.5,10c0.2,0.8,0.3,1.7,0.3,2.5c0,2.7-1.1,5-3.4,6.8c-2.1,1.7-4.7,2.7-7.7,3.1c-0.3,0-1.4,0.2-3.4,0.6
		c-1.6,0.3-2.8,0.5-3.7,0.5c-2.7,0-3.9-1.3-3.7-3.8c0.2-2.6,2-4.8,5.3-6.4c2.9-1.1,5.8-2.2,8.7-3.4c0.8-0.5,1.7-0.9,2.6-1.4
		c1.1-0.6,2-0.9,2.7-0.9C264.3,7.7,265.1,8.5,265.5,10z"/>
	<path d="M311.6,22.1c-1.8,0.1-2.7-0.6-2.7-2.1c0-0.2,0.2-1.3,0.5-3.2c0.3-2,0.9-3.6,1.8-5c1-1.6,2.2-2.4,3.7-2.6
		c1.5-0.2,3.4-0.3,5.8-0.4c3.6,0,5.6-0.1,6-0.1c1.2-0.1,1.8-0.1,1.9-0.1c0.4-0.1,0.9-0.6,1.4-1.5c0.3-0.7,0.6-1.4,1-2
		c0.3-0.6,0.9-1,1.7-1.2c2.1-0.6,3.9-0.8,5.4-0.5c1.5,0.3,2.4,1,2.9,2c0.2,0.6,0.4,1.7,0.4,3.4c4,0.2,9.2-0.3,15.7-1.6
		c0.3-0.1,1.5-0.4,3.5-1c1.5-0.5,2.8-0.7,3.8-0.7c0.4,0,0.9,0,1.3,0.1c1.3,0.3,2,0.9,2,1.7c0,0.5-0.5,1.7-1.4,3.7
		c-1.6,3.3-4.8,5.4-9.8,6.5c-4.1,0.5-8.2,1.1-12.4,1.6c-3.7,0.7-6,1.1-7,1.1c-1.5,0-2.6,0.4-3.3,1.3c-0.5,0.6-1,1.7-1.6,3.5
		c-1.6,5-4.1,10.9-7.4,17.6c-3,5.6-5.9,11.3-8.8,16.9c-1.1,2.2-3.2,3.2-6.1,3.2c-1.8,0-3.3-0.4-4.6-1.3c-1.3-0.9-2-2-2-3.5
		c0-0.9,0.3-1.8,0.8-2.8c1.4-2.4,2.9-4.9,4.3-7.3c1.9-3.2,3.3-5.9,4.3-8.3c0.4-1.1,2.2-4.1,5.3-9c2.5-4,4-7.3,4.4-9.9
		c-0.6-0.1-1.3-0.2-1.9-0.2c-1.1,0-2.6,0.3-4.5,0.9C314.2,21.8,312.7,22.1,311.6,22.1z"/>
	<path d="M420.3,21.6c0.6-0.6,1.3-1.1,1.9-1.6c0.7-0.7,1-1.3,1-1.9c0-0.6-0.4-1.3-1.3-1.9c-1.4-1-3.6-1.5-6.5-1.6
		c-1.9-0.1-3.8-0.2-5.6-0.2c-2.2-0.1-4.1,0-5.7,0.2c-3.6,0.5-7.7,1.5-12.4,2.9c-4.2,1.4-8.3,2.7-12.4,4.1c0,0-1.9,0.8-5.5,2.3
		c-2.3,1-4.3,1.5-5.9,1.4c-2.4-0.1-3.5-0.8-3.5-2.1c0-1.1,0.7-2.4,2.1-4c1.2-1.4,2.4-2.4,3.6-3.1C382.2,9,394.4,5.4,406.6,5.4
		c6.5,0,12.9,1.1,19.1,3.2c3.8,1.4,5.8,4.1,5.8,8.3c0,1.1-0.1,2.3-0.4,3.6c-0.9,4.4-4.5,8.4-10.8,11.9c0.6,1.2,2,3.1,4.1,5.6
		c2,2.4,3.3,4.3,4,5.8c0.8,1.6,1.6,3.3,2.4,4.9c1,2.2,1.4,4,1.4,5.3c0,2.5-1.6,3.8-4.9,3.9c-4.9,0.2-7.8-1.8-8.7-5.9
		c-0.8-3.7-2.5-6.8-4.9-9.2c-1.6-1.6-2.4-2.4-2.5-2.5c-1.1-1-2.3-1.6-3.4-1.8c-0.9-0.2-1.8-0.3-2.7-0.3c-4.2,0-8.7,2.8-13.5,8.4
		c-0.5,0.6-1.1,1.8-1.7,3.7c-0.7,2.1-1.3,3.5-1.7,4.2c-0.8,1.4-1.8,2-2.9,2c-0.4,0-0.8-0.1-1.3-0.2c-1.8-0.6-2.8-1-3.1-1.3
		c-0.8-0.6-1.2-1.6-1.2-3.1c0-1.6,1.1-3.7,3.1-6.4c2.1-2.7,3.2-4.9,3.3-6.5c0-0.4,0-1.9,0-4.6c0-1.9,0.2-3.4,0.5-4.5s0.7-1.8,1-2.1
		c0.3-0.3,1.1-0.5,2.3-0.7c1.2-0.2,2.2-0.7,2.9-1.5c0,0,0.7-1,1.9-2.8c1.7-2.5,3.3-3.8,4.9-3.8c0.6,0,1.1,0.2,1.6,0.5
		c0.8,0.6,1.1,1.3,1.1,2.1c0,0.7-0.6,2.1-1.7,4.4c1.2,0.4,2.6,0.7,4.3,0.7c2.7,0,5.5-0.5,8.3-1.4S418.6,23,420.3,21.6z"/>
	<path d="M458.5,7c2.3-0.1,5.4-0.1,9.4-0.1c4.5,0.1,7.6,0.1,9.5,0.1c1.2,0,2.1-0.3,2.5-0.9c0.4-0.8,0.9-1.5,1.3-2.3
		c0.6-0.8,1.4-1.3,2.3-1.3c0.8,0,2,0.5,3.6,1.4c1.6,0.9,2.8,1.4,3.6,1.4c0.5,0,1-0.2,1.4-0.5c0.8,0.9,1.8,1.3,3.1,1.3
		c1,0,2.5-0.4,4.4-1.1c2.2-0.8,3.7-1.2,4.4-1.3c0.6-0.1,1.2-0.1,1.7-0.1c2.2,0,3.2,0.7,3.2,2.2c0,0.9-0.4,2-1.1,3.3
		c-1.4,2.4-3.6,4.1-6.7,5c-2.8,0.5-5.6,1-8.4,1.5c-2.8,0.5-5,1.4-6.4,2.5c-1.5,1.1-2.9,3-4.4,5.6c3.6,0.8,8.3,1.7,14.1,2.7
		c2.8,0.5,4.7,1.3,5.8,2.4c1.1,1.1,1.7,3,1.7,5.7c-1.3,0.1-3-0.1-5.2-0.5c-2.3-0.4-4-0.6-5.1-0.6c-1.1,0-3.5,0.2-7.1,0.5
		c-1.6,0.2-4.2,0.3-7.6,0.5c-1.5,0-2.7,0.6-3.6,1.7c-0.8,1-1.5,2.1-2.3,3.1c2,0.4,6.3,0.9,12.9,1.3c5.4,0.3,9.6,1.1,12.5,2.5
		c2.2,1,3.4,2.2,3.4,3.5c0,0.2,0,0.5-0.1,0.8c-0.4,1.4-2.2,2.2-5.4,2.2h-5.9c-1.1,0-2.1,0.2-2.9,0.5c-1,0.4-1.9,0.6-2.5,0.6
		c-3.2,0.2-8.1,0.5-14.6,1.1c-0.8,0.2-2.1,0.6-3.8,1.1c-1,0.2-1.7,0.6-2.2,1.3s-1,1.3-1.6,2c-0.8,0.8-1.9,1.3-3.1,1.3
		c-0.8,0-2.2-0.3-4.1-0.9c-1.9-0.6-3.3-0.9-4.3-0.9c-0.6,0-1.6,0.1-2.9,0.3c-1.3,0.2-2.2,0.3-2.9,0.3c-4.3,0-6.3-1.6-6-4.8
		c0.2-2.5,0.7-4.1,1.6-4.9c0.9-0.8,3.6-1.7,8.1-2.7c2.8-0.5,5.5-1,8.3-1.4c3.1-0.9,5-2.6,5.7-5c-0.8-0.2-1.6-0.3-2.5-0.3
		c-1.9,0-4.1,0.5-6.5,1.4c-2,0.9-4.1,1.8-6.1,2.6c-0.4-3,0-5.7,1.1-8.1c0.5-1.1,1.8-2.2,3.9-3.4c1.7-0.9,3.4-1.6,5.3-2
		c2.2-0.7,5.4-1.6,9.7-2.7c1.6-0.4,2.8-1.1,3.7-2.3c0.4-0.6,1.2-2,2.2-4.1c-4.6-1.1-11.5-1.6-20.5-1.6c0.5-2.9,0.9-4.9,1.4-5.9
		C455.4,8.4,456.8,7.1,458.5,7z"/>
	<path d="M549,15.1c-1.7,0.4-4.2,0.6-7.6,0.5c-1,0-2-0.3-2.9-0.7c-1.1-0.5-1.6-1.2-1.6-2c0-0.5,0.2-1.1,0.7-1.6
		c0.9-1.1,3.1-1.6,6.5-1.6c8.4,0,13.9,0,16.6-0.1c6.2-0.2,11.6-0.7,16.4-1.5c1.4-0.2,3-1.6,5-4.1c1.9-2.4,3.5-3.6,4.7-3.6
		c0.8,0,1.7,0.4,2.7,1.3c1.6,1.4,2.3,3,2.3,4.9c0,0.6-0.1,1.4-0.3,2.5c-0.2,1.5-0.4,2.4-0.4,2.8c-0.2,2-1.1,6.5-2.7,13.5
		c-0.2,1-0.3,1.6-0.3,1.9c0,0.5,0.2,0.8,0.5,1c0.2,0.2,0.8,0.4,1.9,0.8c1,0.4,1.5,1,1.7,1.8c0-0.1-0.1,0.9-0.1,3.1
		c-2.5,0-4.1,0.4-5,1.1c-0.7,0.6-1.3,2.2-2,4.7c-0.7,2.5-1.1,4.3-1.4,5.3c-0.6,2-1.2,3.6-1.9,5c-0.5,1.2-1.3,1.9-2.4,2.1
		c-0.2,0-1.4,0.1-3.5,0.1c0-0.5,0-2.3,0.1-5.2c0-2.2,0-4-0.1-5.3c-0.1-1.9-0.3-3.6-0.6-5.1c-3,0.7-5.9,2-8.5,4
		c-2.4,2.1-4.8,4.2-7.2,6.2c-6.3,5.3-11.9,8.9-16.7,10.8c-5,1.9-10.3,2.9-15.7,2.9c-3.5,0-6.7-0.4-9.7-1.3c-2.3-0.7-4.1-1.9-5.3-3.6
		c-1.3-1.7-1.9-3.7-1.9-6c0-1.5,0.3-3,0.8-4.4c2.6,2.4,5.5,3.5,8.7,3.5c1.5,0,3.6-0.3,6.4-0.8c9.4-1.8,16.6-4.5,21.6-8.1
		c-2-0.5-4.6-0.8-7.7-1.1c-2.6-0.2-5.3-0.4-7.9-0.5c-0.8-0.1-2-0.1-3.6,0.1c-1.9,0.2-3.2,0.2-3.9,0.2c-3.9,0-6.1-1.4-6.5-4.1
		c4.5-1,10-1.9,16.4-2.6c5.5-0.6,11-1.1,16.5-1.7c2.1-0.2,4.1-0.3,6.2-0.5c2.4-0.2,4.4-0.8,5.8-1.7c2.4-1.5,4.7-3.5,7-6.1
		c2.3-2.6,3.9-5.1,4.9-7.4c-3.7-0.8-7.6-1.3-11.7-1.3C558.4,13.3,553.6,13.9,549,15.1z M576.6,29.2c0.9-0.5,1.4-0.9,1.6-1.2
		c0.1-0.3,0.1-0.9,0.1-2.1c-0.7,0.8-1.2,1.4-1.3,1.7C576.8,27.8,576.7,28.3,576.6,29.2z"/>
	<path d="M646.1,3.8c0.8,0.8,1.1,2,1.1,3.6c0,1.6-0.3,3.2-1,4.6c-0.8,1.5-1.7,2.4-2.8,2.6c-2,0.4-4.1,0.7-6.1,1.1
		c-2.5,0.6-3.7,1.7-3.7,3.2c0,0.6,0.2,1.4,0.6,2.2c0.2,0.4,0.7,1.2,1.6,2.6c0.5,0.9,0.9,1.8,1.1,2.8c0.5,2,0.7,5.1,0.5,9.2
		c-0.2,7.1-3.6,12.9-10.3,17.3c-5.1,3.4-9.6,5.1-13.6,5.1c-3.3,0-6.1-1.2-8.6-3.5c-0.7-0.7-1.5-1.6-2.2-2.8
		c-0.7-1.2-1.1-2.1-1.1-2.7c0-1.3,2.4-2.8,7.1-4.7c4.6-1.8,7.9-3.4,10-4.7c4.1-2.7,6-5.7,5.6-8.8c-0.2-1.7-1.4-2.9-3.5-3.6
		c-1.9-0.6-3.9-1.1-5.8-1.6c-2-0.8-3-2-3-3.8c0-0.7,0.1-1.5,0.4-2.3c1.2-3.8,3.7-6.9,7.4-9.4c2.9-1.9,6.8-3.5,11.7-4.8
		c3.9-0.8,7.8-1.7,11.6-2.6c0-0.1,0-0.1,0.1-0.1c0.2,0,0.7,0.1,1.3,0.4C645.5,3.4,645.9,3.6,646.1,3.8z"/>
	<path d="M683.9,0.5c0.6,0,1.1,0.1,1.7,0.2c0.8,0.2,1.3,0.3,1.6,0.3c1.8,0.2,4.9,0.9,9.2,2.2c3.6,1,6.9,3.1,9.9,6.1
		c3,3.1,4.9,6.4,5.8,10c0.4,2,0.7,4.1,0.7,6.1c0,9.7-4.3,17.2-13,22.5c-7.3,4.4-16.1,6.7-26.3,6.7c-2.8,0-5.2-0.4-7.3-1.2
		s-4-2.1-5.6-3.8c-1.7-1.8-2.7-3.8-3-5.9c-0.4-2.4-0.5-4.8-0.5-7.1c0-7,1.6-13.3,4.9-18.8c2.9-4.9,5.8-8.7,8.9-11.4
		c3.6-3.2,7.8-5.3,12.7-6.4L683.9,0.5z M701.7,27c0.1-0.7,0.2-1.3,0.2-2c0-3.2-1.3-5.9-3.9-8.2c-2.6-2.3-5.5-3.5-8.8-3.5
		c-4,0-7.8,1.7-11.4,5c-3.1,2.8-5.6,6.2-7.4,10.3c-0.8,1.6-1.5,3.1-2.3,4.7c-0.9,2-1.3,3.7-1.3,5.1c0,1.7,0.7,3.1,2,4.2
		c1,0.8,2.1,1.3,3.2,1.3c1.6,0,3.4-0.9,5.5-2.7c1.7-1.7,3.4-3.4,5-5.1c1.9-1.9,3.5-3,4.6-3.2c0.2,0.8,0.2,1.6,0.2,2.3
		c0,1.4-0.4,3.2-1.3,5.3c0.4,0.1,0.7,0.1,1.1,0.1c2.9,0,5.9-1.6,9.1-4.7C699.3,33,701.1,30,701.7,27z"/>
	<path d="M775.4,21.6c0.6-0.6,1.3-1.1,1.9-1.6c0.7-0.7,1-1.3,1-1.9c0-0.6-0.4-1.3-1.3-1.9c-1.4-1-3.6-1.5-6.5-1.6
		c-1.9-0.1-3.8-0.2-5.6-0.2c-2.2-0.1-4.1,0-5.7,0.2c-3.6,0.5-7.7,1.5-12.4,2.9c-4.2,1.4-8.3,2.7-12.4,4.1c0,0-1.9,0.8-5.5,2.3
		c-2.3,1-4.3,1.5-5.9,1.4c-2.4-0.1-3.5-0.8-3.5-2.1c0-1.1,0.7-2.4,2.1-4c1.2-1.4,2.4-2.4,3.6-3.1C737.3,9,749.5,5.4,761.7,5.4
		c6.5,0,12.9,1.1,19.1,3.2c3.8,1.4,5.8,4.1,5.8,8.3c0,1.1-0.1,2.3-0.4,3.6c-0.9,4.4-4.5,8.4-10.8,11.9c0.6,1.2,2,3.1,4.1,5.6
		c2,2.4,3.3,4.3,4,5.8c0.8,1.6,1.6,3.3,2.4,4.9c1,2.2,1.4,4,1.4,5.3c0,2.5-1.6,3.8-4.9,3.9c-4.9,0.2-7.8-1.8-8.7-5.9
		c-0.8-3.7-2.5-6.8-4.9-9.2c-1.6-1.6-2.4-2.4-2.5-2.5c-1.1-1-2.3-1.6-3.4-1.8c-0.9-0.2-1.8-0.3-2.7-0.3c-4.2,0-8.7,2.8-13.5,8.4
		c-0.5,0.6-1.1,1.8-1.7,3.7c-0.7,2.1-1.3,3.5-1.7,4.2c-0.8,1.4-1.8,2-2.9,2c-0.4,0-0.8-0.1-1.3-0.2c-1.8-0.6-2.8-1-3.1-1.3
		c-0.8-0.6-1.2-1.6-1.2-3.1c0-1.6,1.1-3.7,3.1-6.4c2.1-2.7,3.2-4.9,3.3-6.5c0-0.4,0-1.9,0-4.6c0-1.9,0.2-3.4,0.5-4.5s0.7-1.8,1-2.1
		c0.3-0.3,1.1-0.5,2.3-0.7c1.2-0.2,2.2-0.7,2.9-1.5c0,0,0.7-1,1.9-2.8c1.7-2.5,3.3-3.8,4.9-3.8c0.6,0,1.1,0.2,1.6,0.5
		c0.8,0.6,1.1,1.3,1.1,2.1c0,0.7-0.6,2.1-1.7,4.4c1.2,0.4,2.6,0.7,4.3,0.7c2.7,0,5.5-0.5,8.3-1.4S773.7,23,775.4,21.6z"/>
</g>
</svg>
