<?xml version="1.0" encoding="utf-8"?>
<!-- Generator: Adobe Illustrator 22.1.0, SVG Export Plug-In . SVG Version: 6.00 Build 0)  -->
<svg version="1.1" id="Calque_1" xmlns="http://www.w3.org/2000/svg" xmlns:xlink="http://www.w3.org/1999/xlink" x="0px" y="0px"
	 viewBox="0 0 1016.5 638.4" style="enable-background:new 0 0 1016.5 638.4;" xml:space="preserve">
<style type="text/css">
	.st0{fill:#FFFFFF;}
</style>
<path d="M1016.3,1.1c-0.3-0.7-1-1.1-1.8-1.1H2C1.2,0,0.6,0.4,0.2,1.1s-0.3,1.5,0.2,2.1L30,43.6c0.4,0.5,1,0.8,1.6,0.8h45.9v45.3
	c0,1.1,0.9,2,2,2h136.8l-0.7,49.4c-0.1,0-0.1,0-0.2,0H79.5c-0.7,0-1.3,0.4-1.7,0.9c-0.4,0.6-0.4,1.3-0.1,1.9l15.1,30.9
	c0.3,0.7,1,1.1,1.8,1.1H215l-5.1,342.6c-0.8,0.1-1.6,0.7-2.2,1.2l-12.1,16.1c-0.5,0.5-0.8,1.1-0.8,1.8c0,0.1,0,0.3,0,0.4l-6.2,97.2
	c0,0.6,0.3,1.5,0.9,2.2c0.6,0.6,1.2,0.9,2.2,0.9h103.5c0.9,0,1.9-0.6,2.5-0.9c0.6-0.6,0.9-1.2,0.9-2.2l-6.1-96.2
	c0.5-0.9,0.2-2-0.4-2.9l-12.4-16.4c-0.6-0.9-1.5-1.2-2.5-1.2h-0.4L271.7,174H514h230.9l-5.2,344.6c-0.8,0.1-1.6,0.7-2.2,1.2
	l-12.1,16.1c-0.5,0.5-0.8,1.1-0.8,1.8l0,0c0,0.1,0,0.3,0,0.4l-6.2,97.2c0,0.6,0.3,1.5,0.9,2.2c0.6,0.6,1.2,0.9,2.2,0.9h103.8
	c-0.3,0,0-0.3,0,0c1.5,0,2.8-1.5,3.1-2.8c0-0.3,0-0.6,0-0.9l-6.1-96.1c0.1-0.2,0.2-0.4,0.3-0.6c0-0.9-0.3-1.5-0.9-2.2l-12-16.1
	c-0.6-0.9-1.5-1.2-2.5-1.2h-0.4L801.5,176h120.4c0.8,0,1.5-0.4,1.8-1.1l15.1-30.9c0.3-0.6,0.3-1.4-0.1-1.9c-0.4-0.6-1-0.9-1.7-0.9
	H801.1c-0.1,0-0.1,0-0.2,0l-0.7-49.4h136.5c1.1,0,2-0.9,2-2V44.5h46.2c0.6,0,1.2-0.3,1.6-0.8l29.7-40.5
	C1016.6,2.6,1016.7,1.8,1016.3,1.1z M270.4,91.7h475.7l-0.9,51.4H513.9H271.3L270.4,91.7z"/>
<g>
	<rect x="424.9" y="44" class="st0" width="3.7" height="23"/>
	<rect x="451.1" y="22.2" class="st0" width="3.7" height="23"/>
	<rect x="587.9" y="44" class="st0" width="3.7" height="23"/>
	<rect x="533.7" y="22.2" class="st0" width="3.7" height="44.4"/>
	<polygon class="st0" points="509.9,47.1 509.9,43.3 482.8,43.3 482.8,22.2 479.1,22.2 479.1,67 481.5,67 482.8,67 509.9,67 
		509.9,63.3 482.8,63.3 482.8,47.1 	"/>
</g>
</svg>
